<?xml version="1.0" encoding="UTF-8"?>
<!DOCTYPE svg PUBLIC "-//W3C//DTD SVG 1.1//EN" "http://www.w3.org/Graphics/SVG/1.1/DTD/svg11.dtd">
<!-- Creator: CorelDRAW 2021.5 -->
<svg xmlns="http://www.w3.org/2000/svg" xml:space="preserve" width="3125px" height="3125px" version="1.1" shape-rendering="geometricPrecision" text-rendering="geometricPrecision" image-rendering="optimizeQuality" fill-rule="evenodd" clip-rule="evenodd"
viewBox="0 0 5064.89 5064.92"
 xmlns:xlink="http://www.w3.org/1999/xlink"
 xmlns:xodm="http://www.corel.com/coreldraw/odm/2003">
 <g id="Layer_x0020_1">
  <metadata id="CorelCorpID_0Corel-Layer"/>
  <g id="_2494190566240">
   <g>
    <path fill="white" fill-rule="nonzero" d="M1483.63 17.71c-269.46,12.72 -453.47,55.72 -614.33,118.93 -166.48,64.88 -307.59,151.95 -447.99,292.85 -140.4,140.91 -226.86,282.12 -291.29,448.86 -62.35,161.21 -104.59,345.37 -116.49,614.98 -11.9,269.61 -14.54,356.27 -13.22,1043.99 1.32,687.71 4.35,773.92 17.42,1044.08 12.87,269.41 55.72,453.37 118.93,614.28 64.98,166.48 151.94,307.54 292.9,447.99 140.96,140.45 282.07,226.71 449.21,291.24 161.07,62.24 345.28,104.69 614.83,116.49 269.56,11.8 356.32,14.54 1043.84,13.22 687.51,-1.32 774.07,-4.36 1044.18,-17.17 270.12,-12.82 453.11,-55.97 614.08,-118.88 166.48,-65.13 307.64,-151.94 447.99,-292.95 140.35,-141.01 226.76,-282.32 291.13,-449.16 62.4,-161.07 104.8,-345.28 116.5,-614.63 11.8,-270.32 14.58,-356.62 13.27,-1044.24 -1.32,-687.61 -4.41,-773.82 -17.23,-1043.88 -12.81,-270.06 -55.71,-453.46 -118.87,-614.48 -65.08,-166.49 -151.95,-307.44 -292.85,-447.99 -140.91,-140.56 -282.32,-226.91 -449.11,-291.14 -161.17,-62.34 -345.28,-104.84 -614.83,-116.49 -269.56,-11.65 -356.32,-14.64 -1044.09,-13.32 -687.77,1.32 -773.87,4.25 -1043.98,17.42l0 0zm29.57 4578.1c-246.91,-10.74 -380.98,-51.76 -470.33,-86.11 -118.31,-45.58 -202.59,-100.69 -291.63,-188.87 -89.05,-88.18 -143.75,-172.76 -189.94,-290.83 -34.7,-89.34 -76.48,-223.26 -88.03,-470.17 -12.56,-266.88 -15.2,-347 -16.66,-1023.12 -1.47,-676.12 1.11,-756.14 12.81,-1023.12 10.54,-246.71 51.82,-380.93 86.1,-470.23 45.59,-118.46 100.49,-202.59 188.88,-291.58 88.38,-89 172.71,-143.8 290.87,-189.99 89.25,-34.85 223.17,-76.28 469.98,-88.03 267.08,-12.66 347.1,-15.2 1023.12,-16.66 676.01,-1.47 756.24,1.06 1023.42,12.81 246.71,10.74 380.98,51.61 470.18,86.1 118.36,45.59 202.59,100.34 291.59,188.88 88.99,88.53 143.84,172.56 190.03,290.98 34.9,88.99 76.33,222.85 87.98,469.82 12.71,267.08 15.6,347.15 16.82,1023.12 1.21,675.96 -1.17,756.24 -12.87,1023.11 -10.79,246.92 -51.71,381.04 -86.1,470.48 -45.59,118.27 -100.54,202.6 -188.98,291.54 -88.43,88.94 -172.66,143.75 -290.87,189.94 -89.15,34.79 -223.22,76.33 -469.83,88.08 -267.07,12.56 -347.1,15.19 -1023.37,16.66 -676.27,1.47 -756.04,-1.26 -1023.12,-12.81l-0.05 0zm2064.52 -3416.86c0.26,167.64 136.28,303.39 303.9,303.39 167.81,0 303.89,-136.09 303.89,-303.89 0,-167.81 -136.08,-303.9 -303.89,-303.9 -0.19,0 -0.41,0 -0.59,0 -167.59,0.3 -303.31,136.31 -303.31,303.9 0,0.14 0,0.37 0,0.51l0 -0.01zm-2345.57 1356.04c1.42,718.2 584.7,1299.1 1302.76,1297.73 718.05,-1.37 1299.35,-584.59 1297.99,-1302.8 -1.37,-718.21 -584.8,-1299.26 -1302.96,-1297.84 -718.16,1.42 -1299.16,584.8 -1297.79,1302.91l0 0zm456.15 -0.91c0,-0.54 0,-1.16 0,-1.67 0,-466.15 378.03,-844.18 844.17,-844.18 466.15,0 844.17,378.03 844.17,844.18 0,465.52 -376.99,843.34 -842.52,844.16 -0.51,0 -1.23,0 -1.75,0 -465.47,0 -843.24,-377.05 -844.07,-842.52l0 0.03zm0 0l0 0 0 0z"/>
   </g>
  </g>
 </g>
</svg>
