<?xml version="1.0" encoding="UTF-8"?>
<!DOCTYPE svg PUBLIC "-//W3C//DTD SVG 1.1//EN" "http://www.w3.org/Graphics/SVG/1.1/DTD/svg11.dtd">
<!-- Creator: CorelDRAW 2021.5 -->
<svg xmlns="http://www.w3.org/2000/svg" xml:space="preserve" width="3125px" height="3125px" version="1.1" shape-rendering="geometricPrecision" text-rendering="geometricPrecision" image-rendering="optimizeQuality" fill-rule="evenodd" clip-rule="evenodd"
viewBox="0 0 1005.29 1005.3"
 xmlns:xlink="http://www.w3.org/1999/xlink"
 xmlns:xodm="http://www.corel.com/coreldraw/odm/2003">
 <g id="Layer_x0020_1">
  <metadata id="CorelCorpID_0Corel-Layer"/>
  <g id="_2494197626432">
   <g>
    <path fill="black" fill-rule="nonzero" d="M294.47 3.52c-53.48,2.52 -90,11.05 -121.93,23.6 -33.04,12.88 -61.05,30.16 -88.92,58.13 -27.87,27.96 -45.03,55.99 -57.81,89.09 -12.38,31.99 -20.76,68.55 -23.12,122.06 -2.37,53.51 -2.89,70.71 -2.63,207.21 0.26,136.5 0.87,153.61 3.46,207.23 2.55,53.48 11.06,89.99 23.6,121.93 12.9,33.04 30.16,61.04 58.14,88.92 27.98,27.87 55.99,44.99 89.16,57.8 31.97,12.35 68.53,20.78 122.03,23.12 53.51,2.34 70.73,2.89 207.19,2.63 136.45,-0.27 153.64,-0.87 207.25,-3.41 53.61,-2.55 89.93,-11.11 121.88,-23.6 33.04,-12.92 61.06,-30.16 88.92,-58.14 27.86,-27.99 45.01,-56.04 57.78,-89.15 12.39,-31.97 20.8,-68.53 23.13,-122 2.34,-53.65 2.89,-70.78 2.63,-207.26 -0.26,-136.48 -0.88,-153.59 -3.42,-207.19 -2.54,-53.6 -11.06,-90 -23.59,-121.96 -12.92,-33.05 -30.16,-61.03 -58.13,-88.92 -27.97,-27.9 -56.03,-45.04 -89.14,-57.79 -31.99,-12.37 -68.53,-20.81 -122.03,-23.12 -53.5,-2.31 -70.73,-2.9 -207.23,-2.64 -136.51,0.26 -153.6,0.84 -207.22,3.46l0 0zm5.87 908.67c-49,-2.14 -75.61,-10.28 -93.35,-17.09 -23.48,-9.05 -40.21,-19.99 -57.88,-37.49 -17.68,-17.5 -28.53,-34.29 -37.7,-57.73 -6.89,-17.73 -15.18,-44.31 -17.47,-93.32 -2.5,-52.97 -3.02,-68.87 -3.31,-203.07 -0.29,-134.2 0.22,-150.08 2.54,-203.07 2.09,-48.97 10.29,-75.61 17.09,-93.33 9.05,-23.51 19.95,-40.21 37.49,-57.88 17.54,-17.66 34.28,-28.54 57.73,-37.7 17.72,-6.92 44.3,-15.14 93.29,-17.48 53,-2.51 68.89,-3.01 203.07,-3.3 134.17,-0.3 150.1,0.21 203.13,2.54 48.96,2.13 75.61,10.24 93.32,17.09 23.49,9.05 40.21,19.91 57.87,37.49 17.67,17.57 28.55,34.25 37.72,57.75 6.93,17.66 15.15,44.23 17.46,93.25 2.53,53.01 3.1,68.91 3.34,203.07 0.24,134.17 -0.23,150.1 -2.55,203.07 -2.14,49.01 -10.27,75.63 -17.09,93.38 -9.05,23.48 -19.96,40.22 -37.51,57.87 -17.55,17.65 -34.27,28.53 -57.73,37.7 -17.7,6.91 -44.31,15.15 -93.26,17.48 -53,2.49 -68.89,3.02 -203.12,3.31 -134.22,0.29 -150.06,-0.25 -203.07,-2.55l-0.01 0.01zm409.77 -678.19c0.06,33.27 27.05,60.22 60.32,60.22 33.31,0 60.32,-27.01 60.32,-60.32 0,-33.31 -27.01,-60.32 -60.32,-60.32 -0.04,0 -0.08,0 -0.12,0 -33.26,0.06 -60.2,27.06 -60.2,60.32 0,0.03 0,0.07 0,0.1l0 0zm-465.55 269.15c0.28,142.55 116.05,257.85 258.57,257.58 142.52,-0.27 257.9,-116.03 257.63,-258.59 -0.27,-142.55 -116.07,-257.88 -258.61,-257.59 -142.54,0.28 -257.86,116.07 -257.59,258.6l0 0zm90.54 -0.18c0,-0.11 0,-0.23 0,-0.33 0,-92.52 75.03,-167.56 167.55,-167.56 92.52,0 167.55,75.04 167.55,167.56 0,92.39 -74.82,167.39 -167.22,167.55 -0.1,0 -0.25,0 -0.35,0 -92.39,0 -167.37,-74.84 -167.53,-167.23l0 0.01zm0 0l0 0 0 0z"/>
   </g>
  </g>
 </g>
</svg>
