<?xml version="1.0" encoding="UTF-8"?>
<!DOCTYPE svg PUBLIC "-//W3C//DTD SVG 1.1//EN" "http://www.w3.org/Graphics/SVG/1.1/DTD/svg11.dtd">
<!-- Creator: CorelDRAW 2021.5 -->
<svg xmlns="http://www.w3.org/2000/svg" xml:space="preserve" width="500px" height="143px" version="1.1" shape-rendering="geometricPrecision" text-rendering="geometricPrecision" image-rendering="optimizeQuality" fill-rule="evenodd" clip-rule="evenodd"
viewBox="0 0 168970 48210"
 xmlns:xlink="http://www.w3.org/1999/xlink"
 xmlns:xodm="http://www.corel.com/coreldraw/odm/2003">
 <g id="Layer_x0020_1">
  <metadata id="CorelCorpID_0Corel-Layer"/>
  <rect fill="white" stroke="white" stroke-width="50" stroke-miterlimit="22.9256" x="20" y="20" width="168930" height="48160" rx="11150" ry="12230"/>
  <rect fill="#FF0169" stroke="white" stroke-width="50" stroke-miterlimit="22.9256" x="6070" y="5690" width="156830" height="36830" rx="7120" ry="6430"/>
  <polygon fill="white" fill-rule="nonzero" points="17700,32810 17700,15390 21060,15390 21060,29700 29450,29700 29450,32810 "/>
  <path id="_1" fill="white" fill-rule="nonzero" d="M30920 32810l6550 -17420 4250 0 6530 17420 -3660 0 -1250 -3500 -7490 0 -1250 3500 -3680 0zm8660 -14030l-2640 7440 5310 0 -2670 -7440z"/>
  <polygon id="_2" fill="white" fill-rule="nonzero" points="50090,32810 50090,15390 54390,15390 61440,26820 61440,15390 64720,15390 64720,32810 61460,32810 53370,19700 53370,32810 "/>
  <path id="_3" fill="white" fill-rule="nonzero" d="M74680 33110c-1380,0 -2610,-310 -3710,-940 -1090,-630 -1960,-1560 -2590,-2780 -630,-1220 -940,-2700 -940,-4440l0 -1690c0,-1480 280,-2840 860,-4070 570,-1240 1420,-2230 2560,-2980 1140,-740 2550,-1120 4240,-1120 1460,0 2680,220 3660,660 980,440 1750,1040 2320,1810 560,760 950,1630 1170,2610l-3040 1170c-270,-980 -730,-1750 -1380,-2300 -660,-560 -1570,-840 -2750,-840 -1410,0 -2480,480 -3200,1450 -720,960 -1080,2180 -1080,3660l0 1590c0,1590 360,2840 1090,3750 730,900 1840,1350 3340,1350 930,0 1690,-180 2290,-550 590,-360 1040,-810 1330,-1340 290,-530 430,-1040 430,-1520l0 -100 -5000 0 0 -2690 8220 0 0 9010 -3120 0 0 -2380c-410,840 -1000,1500 -1750,1970 -760,480 -1740,710 -2950,710z"/>
  <path id="_4" fill="white" fill-rule="nonzero" d="M91780 33110c-2070,0 -3680,-500 -4830,-1510 -1140,-1020 -1890,-2340 -2240,-3960l3310 -1100c220,1160 630,2040 1230,2640 610,600 1490,900 2650,900l630 0c930,0 1650,-200 2170,-600 530,-400 790,-980 790,-1740 0,-720 -270,-1260 -810,-1630 -540,-380 -1380,-650 -2530,-810l-1910 -280c-770,-110 -1520,-350 -2270,-710 -740,-350 -1360,-880 -1850,-1580 -490,-690 -740,-1590 -740,-2680 0,-1000 260,-1870 790,-2610 520,-730 1250,-1310 2200,-1730 950,-410 2060,-620 3340,-620l440 0c1300,0 2360,170 3200,510 840,340 1520,820 2030,1420 520,610 930,1320 1250,2130l-2870 1340c-310,-830 -760,-1460 -1350,-1890 -590,-430 -1380,-650 -2360,-650l-420 0c-860,0 -1560,180 -2100,540 -540,360 -810,850 -810,1480 0,680 270,1180 810,1510 540,320 1290,550 2250,680l1920 280c1030,130 1930,400 2720,800 790,410 1410,970 1870,1670 460,710 680,1600 680,2680 0,1160 -260,2150 -790,2970 -530,820 -1280,1450 -2240,1890 -970,440 -2090,660 -3360,660l-800 0z"/>
  <path id="_5" fill="white" fill-rule="nonzero" d="M107880 32810c-2290,0 -3920,-590 -4910,-1790 -990,-1190 -1480,-2860 -1480,-5000l0 -10630 3360 0 0 10850c0,1180 290,2050 870,2620 580,560 1360,840 2340,840l1120 0c990,0 1780,-280 2360,-840 580,-570 880,-1440 880,-2620l0 -10850 3330 0 0 10630c0,2140 -490,3810 -1480,5000 -990,1200 -2630,1790 -4920,1790l-1470 0z"/>
  <polygon id="_6" fill="white" fill-rule="nonzero" points="118860,32810 118860,15390 123170,15390 130210,26820 130210,15390 133500,15390 133500,32810 130240,32810 122150,19700 122150,32810 "/>
  <path id="_7" fill="white" fill-rule="nonzero" d="M143450 33110c-1370,0 -2610,-310 -3700,-940 -1100,-630 -1960,-1560 -2590,-2780 -630,-1220 -950,-2700 -950,-4440l0 -1690c0,-1480 290,-2840 860,-4070 570,-1240 1430,-2230 2560,-2980 1140,-740 2560,-1120 4250,-1120 1460,0 2680,220 3660,660 980,440 1750,1040 2310,1810 570,760 960,1630 1170,2610l-3040 1170c-260,-980 -720,-1750 -1380,-2300 -650,-560 -1570,-840 -2750,-840 -1410,0 -2470,480 -3200,1450 -720,960 -1080,2180 -1080,3660l0 1590c0,1590 370,2840 1100,3750 730,900 1840,1350 3330,1350 930,0 1690,-180 2290,-550 600,-360 1040,-810 1330,-1340 290,-530 440,-1040 440,-1520l0 -100 -5000 0 0 -2690 8210 0 0 9010 -3110 0 0 -2380c-420,840 -1000,1500 -1760,1970 -750,480 -1730,710 -2950,710z"/>
 </g>
</svg>
